Coordinates
version=1
nRows=10
nColumns=22
inDegrees=yes

Units are S.I. units (second, meters, Newtons, ...)
If the header above contains a line with 'inDegrees', this indicates whether rotational values are in degrees (yes) or radians (no).

endheader
time	pelvis_tilt	pelvis_list	pelvis_rotation	pelvis_tx	pelvis_ty	pelvis_tz	hip_flexion_r	hip_adduction_r	hip_rotation_r	knee_angle_r	ankle_angle_r	subtalar_angle_r	hip_flexion_l	hip_adduction_l	hip_rotation_l	knee_angle_l	ankle_angle_l	subtalar_angle_l	lumbar_extension	lumbar_bending	lumbar_rotation
      1.91000000	      1.52439824	      9.09802718	    -27.68110623	      0.06483899	      0.83540657	      0.12721804	     24.43096323	    -17.51079889	      3.09799381	    -82.73974826	     10.54343180	    -19.85581077	     12.49075766	     15.78985689	     -0.69152070	    -39.80565556	     31.33277731	    -18.32041790	    -17.51421771	     -9.24296891	     -0.91646214
      1.92000000	      1.32142428	      8.50279621	    -27.91852531	      0.08079102	      0.83790312	      0.13851950	     27.06003494	    -16.79255010	      3.32178092	    -82.45831615	     11.57038387	    -20.99136704	     10.13436074	     14.86437524	     -0.56320270	    -38.45076128	     30.99499652	    -17.60408990	    -17.16944080	     -8.44032520	     -2.29620378
      1.93000000	      1.04377051	      7.85453944	    -28.21132281	      0.09705603	      0.84120541	      0.15021826	     29.41315501	    -15.93591607	      3.28356911	    -81.49123645	     12.33958981	    -21.39002729	      7.75465233	     13.82152359	     -0.51690389	    -36.93090944	     30.15857697	    -16.87149200	    -16.68624242	     -7.56553131	     -3.60205584
      1.94000000	      0.70337953	      7.08310671	    -28.51046153	      0.11363907	      0.84535840	      0.16229082	     31.35211308	    -14.91363863	      2.90044192	    -79.80852490	     12.90995398	    -21.40321321	      5.36255244	     12.59997705	     -0.54670904	    -35.34977216	     28.80465758	    -15.95325732	    -16.14842659	     -6.54335209	     -4.83283040
      1.95000000	      0.33153784	      6.21569889	    -28.80320334	      0.13055150	      0.85027389	      0.17470077	     32.84012415	    -13.79626955	      2.18891877	    -77.44225734	     13.32539027	    -21.05049161	      2.99354453	     11.24554932	     -0.66340275	    -33.78550798	     26.92034947	    -14.85762586	    -15.59366874	     -5.41695856	     -6.00023265
      1.96000000	     -0.06244061	      5.27334624	    -29.07419155	      0.14772497	      0.85584183	      0.18740214	     33.87830884	    -12.61403316	      1.18088880	    -74.43242748	     13.60016707	    -20.38996286	      0.70186190	      9.78204922	     -0.86938960	    -32.30780011	     24.46910468	    -13.56911476	    -15.05042266	     -4.21601713	     -7.09261673
      1.97000000	     -0.45690931	      4.28947476	    -29.31644930	      0.16517394	      0.86191371	      0.20033518	     34.47062066	    -11.41737078	     -0.08131196	    -70.82693507	     13.71682006	    -19.46566554	     -1.47455580	      8.26075713	     -1.14763504	    -30.98047773	     21.48197004	    -12.09449047	    -14.52631830	     -2.98009327	     -8.12305081
      1.98000000	     -0.83161823	      3.29427936	    -29.52123584	      0.18287138	      0.86834659	      0.21345309	     34.63308809	    -10.23910576	     -1.56051424	    -66.68090385	     13.63930276	    -18.28874038	     -3.50936815	      6.73324335	     -1.42920243	    -29.84529725	     17.98440130	    -10.47298686	    -14.03070899	     -1.74963231	     -9.10256682
      1.99000000	     -1.13190456	      2.31331298	    -29.69346712	      0.20077651	      0.87501546	      0.22674549	     34.35247666	     -9.09768262	     -3.18968021	    -62.05692628	     13.45347034	    -16.87352890	     -5.42430620	      5.25727961	     -1.67363824	    -28.91783926	     14.04433712	     -8.82758024	    -13.61026609	     -0.58657193	    -10.05411066
      2.00000000	     -1.35788822	      1.38984622	    -29.82319210	      0.21889608	      0.88170316	      0.24017119	     33.69370447	     -8.02411514	     -4.95155398	    -57.04923673	     13.01935811	    -15.09644193	     -7.18294714	      3.88209764	     -1.81255549	    -28.21520698	      9.74934925	     -7.12875096	    -13.22892495	      0.46549884	    -10.94778175
